<svg xmlns="http://www.w3.org/2000/svg" viewBox="0 0 156.95 94.82"><defs><style>.cls-1{fill:none;stroke:#000;stroke-miterlimit:10;}</style></defs><title>Asset 12</title><g id="Layer_2" data-name="Layer 2"><g id="Layer_1-2" data-name="Layer 1"><g id="Cloudy_Night" data-name="Cloudy Night"><path class="cls-1" d="M142.4,65.94a33.24,33.24,0,0,0,4.42-1.87,33.59,33.59,0,0,0,8.72-6.38,33.71,33.71,0,0,1-29-57A33.74,33.74,0,0,0,99.91,22.34"/><path class="cls-1" d="M105,44.43a23.63,23.63,0,0,0-4.64.45A39,39,0,0,0,23.46,49c-.42,0-.85,0-1.27,0C10.21,49,.5,59.57.5,71.55s9.71,22.77,21.69,22.77H105c13.23,0,24-11.71,24-24.94S118.25,44.43,105,44.43Z"/></g></g></g></svg>