<svg xmlns="http://www.w3.org/2000/svg" viewBox="0 0 129.48 112.19"><defs><style>.cls-1{fill:none;stroke:#000;stroke-miterlimit:10;}</style></defs><title>Asset 13</title><g id="Layer_2" data-name="Layer 2"><g id="Layer_1-2" data-name="Layer 1"><g id="Rain"><path class="cls-1" d="M105,30.66a24.31,24.31,0,0,0-4.63.45,39,39,0,0,0-76.93,4.13c-.42,0-.84,0-1.27,0C10.21,35.2.5,45.39.5,57.37s9.71,22.37,21.69,22.37H105c13.23,0,24-11.31,24-24.54S118.25,30.66,105,30.66Z"/><line class="cls-1" x1="30.25" y1="90.97" x2="19.71" y2="101.51"/><line class="cls-1" x1="40.99" y1="101.3" x2="30.45" y2="111.83"/><line class="cls-1" x1="62.47" y1="90.97" x2="51.93" y2="101.51"/><line class="cls-1" x1="71.56" y1="101.3" x2="61.02" y2="111.83"/><line class="cls-1" x1="94.69" y1="90.97" x2="84.16" y2="101.51"/><line class="cls-1" x1="102.54" y1="101.3" x2="92.01" y2="111.83"/></g></g></g></svg>