<svg xmlns="http://www.w3.org/2000/svg" viewBox="0 0 129.48 115.74"><defs><style>.cls-1{fill:none;stroke:#000;stroke-miterlimit:10;}</style></defs><title>Asset 14</title><g id="Layer_2" data-name="Layer 2"><g id="Layer_1-2" data-name="Layer 1"><g id="Snow"><path class="cls-1" d="M105,30.66a24.42,24.42,0,0,0-4.64.45,39,39,0,0,0-76.92,4.13c-.42,0-.84,0-1.27,0C10.21,35.2.5,45.33.5,57.31s9.71,22.31,21.69,22.31H105c13.23,0,24-11.25,24-24.48S118.25,30.66,105,30.66Z"/><line class="cls-1" x1="30.39" y1="92.79" x2="39.44" y2="97.56"/><line class="cls-1" x1="37.4" y1="90.48" x2="32.57" y2="99.61"/><line class="cls-1" x1="60.93" y1="90.48" x2="65.21" y2="99.77"/><line class="cls-1" x1="67.89" y1="92.9" x2="58.51" y2="97.23"/><line class="cls-1" x1="87.62" y1="92.2" x2="96.2" y2="97.96"/><line class="cls-1" x1="94.94" y1="90.69" x2="89.19" y2="99.26"/><line class="cls-1" x1="46.77" y1="107.07" x2="53.57" y2="114.7"/><line class="cls-1" x1="54.13" y1="107.35" x2="46.43" y2="114.23"/><line class="cls-1" x1="75.47" y1="106.62" x2="81.25" y2="115.06"/><line class="cls-1" x1="82.74" y1="107.84" x2="74.22" y2="113.67"/><line class="cls-1" x1="102.42" y1="109.37" x2="112.25" y2="112.18"/><line class="cls-1" x1="108.79" y1="105.67" x2="105.96" y2="115.6"/></g></g></g></svg>